<svg width="41" height="41" viewBox="0 0 41 41" fill="none" xmlns="http://www.w3.org/2000/svg">
<path d="M13 28.981C13 28.981 13.288 27.5004 14.7558 26.1231C16.5911 24.4009 18.4168 24.4358 18.4168 24.4358" stroke="black" stroke-width="2" stroke-linecap="round"/>
<rect x="3" y="38" width="36" height="3" rx="1.5" fill="black"/>
<path d="M36 35H6C6 35 7.5 18.5 21 18.5C34.5 18.5 36 35 36 35Z" stroke="black" stroke-width="3.05143"/>
<circle cx="21" cy="17" r="3" fill="black"/>
<path d="M17.0688 8.86235C16.9504 9.17964 16.659 9.75789 16.4103 10.233C16.2625 10.5155 16.5221 10.8248 16.8173 10.7044C17.6844 10.3507 18.9627 9.6997 19.2065 8.86235C19.5371 7.72686 17.8212 7.37226 17.7814 6.19029C17.7718 5.90573 17.8379 5.57299 17.9267 5.26331C18.022 4.93078 17.6721 4.63277 17.4024 4.84932C16.9588 5.20548 16.4924 5.6824 16.3563 6.19029C16.0768 7.23346 17.4466 7.85061 17.0688 8.86235Z" fill="black"/>
<path d="M20.4536 7.63158C20.3351 7.94886 20.0437 8.52712 19.7951 9.00226C19.6473 9.28471 19.9069 9.59405 20.202 9.47364C21.0691 9.1199 22.3474 8.46893 22.5912 7.63158C22.9218 6.49609 21.206 6.14148 21.1661 4.95951C21.1565 4.67496 21.2227 4.34221 21.3114 4.03253C21.4067 3.70001 21.0569 3.40199 20.7872 3.61855C20.3435 3.97471 19.8771 4.45163 19.741 4.95951C19.4615 6.00269 20.8314 6.61984 20.4536 7.63158Z" fill="black"/>
<path d="M23.8381 8.24694C23.7196 8.56422 23.4283 9.14247 23.1796 9.61762C23.0318 9.90007 23.2914 10.2094 23.5866 10.089C24.4537 9.73525 25.732 9.08428 25.9758 8.24694C26.3064 7.11144 24.5905 6.75684 24.5507 5.57487C24.5411 5.29032 24.6072 4.95757 24.696 4.64789C24.7913 4.31537 24.4414 4.01735 24.1717 4.2339C23.7281 4.59006 23.2617 5.06699 23.1256 5.57487C22.846 6.61804 24.2159 7.23519 23.8381 8.24694Z" fill="black"/>
</svg>
