<svg width="62" height="62" viewBox="0 0 62 62" fill="none" xmlns="http://www.w3.org/2000/svg">
<path d="M36.1667 24.025V31.5167H42.8833C43.4 31.5167 43.6583 32.0333 43.6583 32.55L42.625 37.4583C42.625 37.7167 42.1083 37.975 41.85 37.975H36.1667V56.8333H28.4167V38.2333H24.025C23.5083 38.2333 23.25 37.975 23.25 37.4583V32.55C23.25 32.0333 23.5083 31.775 24.025 31.775H28.4167V23.25C28.4167 18.8583 31.775 15.5 36.1667 15.5H43.1417C43.6583 15.5 43.9167 15.7583 43.9167 16.275V22.475C43.9167 22.9917 43.6583 23.25 43.1417 23.25H36.9417C36.425 23.25 36.1667 23.5083 36.1667 24.025Z" stroke="#0D5C2A" stroke-width="4" stroke-miterlimit="10" stroke-linecap="round"/>
<path d="M38.7503 56.8334H23.2503C10.3337 56.8334 5.16699 51.6668 5.16699 38.7501V23.2501C5.16699 10.3334 10.3337 5.16675 23.2503 5.16675H38.7503C51.667 5.16675 56.8337 10.3334 56.8337 23.2501V38.7501C56.8337 51.6668 51.667 56.8334 38.7503 56.8334Z" stroke="#0D5C2A" stroke-width="4" stroke-linecap="round" stroke-linejoin="round"/>
</svg>
