<svg width="62" height="62" viewBox="0 0 62 62" fill="none" xmlns="http://www.w3.org/2000/svg">
<path d="M23.2503 56.8334H38.7503C51.667 56.8334 56.8337 51.6667 56.8337 38.7501V23.2501C56.8337 10.3334 51.667 5.16675 38.7503 5.16675H23.2503C10.3337 5.16675 5.16699 10.3334 5.16699 23.2501V38.7501C5.16699 51.6667 10.3337 56.8334 23.2503 56.8334Z" stroke="#0D5C2A" stroke-width="4" stroke-linecap="round" stroke-linejoin="round"/>
<path d="M30.9997 40.0416C32.187 40.0416 33.3628 39.8077 34.4598 39.3533C35.5568 38.8989 36.5535 38.2329 37.3931 37.3933C38.2327 36.5537 38.8987 35.557 39.3531 34.46C39.8075 33.363 40.0413 32.1873 40.0413 30.9999C40.0413 29.8126 39.8075 28.6368 39.3531 27.5398C38.8987 26.4428 38.2327 25.4461 37.3931 24.6065C36.5535 23.7669 35.5568 23.1009 34.4598 22.6465C33.3628 22.1921 32.187 21.9583 30.9997 21.9583C28.6017 21.9583 26.3019 22.9109 24.6063 24.6065C22.9106 26.3021 21.958 28.6019 21.958 30.9999C21.958 33.3979 22.9106 35.6977 24.6063 37.3933C26.3019 39.089 28.6017 40.0416 30.9997 40.0416Z" stroke="#0D5C2A" stroke-width="4" stroke-linecap="round" stroke-linejoin="round"/>
<path d="M45.5596 18.0833H45.5911" stroke="#0D5C2A" stroke-width="4" stroke-linecap="round" stroke-linejoin="round"/>
</svg>
