<svg width="62" height="62" viewBox="0 0 62 62" fill="none" xmlns="http://www.w3.org/2000/svg">
<path d="M17.8253 53.2168C21.7003 55.5418 26.3503 56.8334 31.0003 56.8334C45.2087 56.8334 56.8337 45.2084 56.8337 31.0001C56.8337 16.7917 45.2087 5.16675 31.0003 5.16675C16.792 5.16675 5.16699 16.7917 5.16699 31.0001C5.16699 35.6501 6.45866 40.0418 8.52533 43.9168L6.30366 52.4573C6.18904 52.8981 6.19305 53.3615 6.31528 53.8004C6.43751 54.2392 6.67361 54.6379 6.99964 54.9561C7.32568 55.2743 7.73005 55.5006 8.17175 55.612C8.61345 55.7235 9.07678 55.7162 9.51474 55.5908L17.8253 53.2168Z" stroke="#0D5C2A" stroke-width="4" stroke-miterlimit="10" stroke-linecap="round" stroke-linejoin="round"/>
<path d="M42.625 38.3573C42.625 38.7758 42.532 39.2072 42.3331 39.6257C42.1301 40.0582 41.8637 40.4578 41.5426 40.8115C40.9717 41.4393 40.3439 41.8913 39.6309 42.1833C38.9334 42.4752 38.1765 42.625 37.3628 42.625C36.1744 42.625 34.906 42.346 33.5652 41.7777C32.1478 41.1632 30.8046 40.3901 29.5611 39.4733C28.2087 38.4854 26.9324 37.3974 25.7429 36.2183C24.5661 35.0354 23.4806 33.7651 22.4957 32.4182C21.5905 31.1856 20.8246 29.8566 20.212 28.4554C19.654 27.125 19.375 25.8592 19.375 24.6528C19.375 23.8623 19.5145 23.1079 19.7935 22.4104C20.0725 21.7 20.5168 21.049 21.1342 20.4677C21.8782 19.7341 22.692 19.375 23.5548 19.375C23.8803 19.375 24.2058 19.4447 24.4977 19.5842C24.8 19.7237 25.0661 19.933 25.2779 20.2353L27.9801 24.0379C28.1868 24.3273 28.3417 24.5959 28.4451 24.8517C28.5484 25.0945 28.6078 25.3399 28.6078 25.5595C28.6045 25.8525 28.5195 26.1388 28.3624 26.3862C28.183 26.6886 27.9641 26.9657 27.7114 27.2102L26.8253 28.1299C26.7637 28.1902 26.7153 28.2627 26.6833 28.3428C26.6513 28.4229 26.6363 28.5087 26.6393 28.5949C26.6393 28.6853 26.6523 28.768 26.6755 28.861C26.7091 28.954 26.7453 29.0237 26.7685 29.0935C26.9752 29.4784 27.3368 29.977 27.8509 30.5815C28.3753 31.186 28.9333 31.8034 29.5378 32.4182C30.1682 33.0357 30.7727 33.604 31.3901 34.1284C31.9946 34.6373 32.4958 34.9861 32.891 35.1953L33.1028 35.2909C33.1956 35.324 33.2937 35.3398 33.3922 35.3374C33.4813 35.3393 33.5698 35.3226 33.6521 35.2884C33.7344 35.2541 33.8086 35.2031 33.8701 35.1385L34.7536 34.2653C35.0455 33.976 35.3245 33.7564 35.5932 33.6143C35.8402 33.4569 36.1269 33.3727 36.4198 33.3715C36.6644 33.3751 36.9058 33.4269 37.1302 33.5239C37.386 33.6273 37.6547 33.7771 37.944 33.976L41.7983 36.7092C42.0776 36.8909 42.2997 37.1479 42.439 37.4506C42.5598 37.7377 42.623 38.0458 42.625 38.3573Z" stroke="#0D5C2A" stroke-width="4" stroke-miterlimit="10"/>
</svg>
