<svg width="65" height="65" viewBox="0 0 65 65" fill="none" xmlns="http://www.w3.org/2000/svg">
<path d="M23.8603 5.41667L14.0562 15.2479M41.1395 5.41667L50.9436 15.2479" stroke="#FBA16C" stroke-width="5.54878" stroke-miterlimit="10" stroke-linecap="round" stroke-linejoin="round"/>
<path d="M5.4165 21.2604C5.4165 16.25 8.09775 15.8438 11.429 15.8438H53.5707C56.9019 15.8438 59.5832 16.25 59.5832 21.2604C59.5832 27.0833 56.9019 26.6771 53.5707 26.6771H11.429C8.09775 26.6771 5.4165 27.0833 5.4165 21.2604Z" stroke="#FBA16C" stroke-width="5.54878"/>
<path d="M26.4332 37.9167V47.5312M38.8915 37.9167V47.5312M9.479 27.0833L13.2978 50.4833C14.1644 55.7375 16.2498 59.5833 23.9957 59.5833H40.3269C48.7498 59.5833 49.9957 55.9 50.9707 50.8083L55.5207 27.0833" stroke="#FBA16C" stroke-width="5.54878" stroke-linecap="round"/>
</svg>
